<svg version="1.1" xmlns="http://www.w3.org/2000/svg" viewBox="0 0 2129 1686.980158730159" width="2129" height="1686.980158730159" filter="invert(93%) hue-rotate(180deg)">
  <!-- svg-source:excalidraw -->
  
  <defs>
    <style class="style-fonts">
      @font-face {
        font-family: "Virgil";
        src: url("https://excalidraw.com/Virgil.woff2");
      }
      @font-face {
        font-family: "Cascadia";
        src: url("https://excalidraw.com/Cascadia.woff2");
      }
      @font-face {
        font-family: "Assistant";
        src: url("https://excalidraw.com/Assistant-Regular.woff2");
      }
    </style>
    
  </defs>
  <rect x="0" y="0" width="2129" height="1686.980158730159" fill="#ffffff"></rect><g stroke-linecap="round" transform="translate(10 713.9801587301587) rotate(0 150.49999999999997 244.4999999999999)"><path d="M32 0 C82.02 1.66, 130.93 -2.15, 269 0 C288.11 -1.79, 298.08 12.76, 301 32 C299.52 177.06, 297.88 324.42, 301 457 C298.63 478.06, 291.52 490.35, 269 489 C219.31 486.08, 169.47 485.27, 32 489 C7.95 488.14, -1.32 478.87, 0 457 C0.3 296.94, -0.13 135.2, 0 32 C-3.5 8.15, 11.07 -1.87, 32 0" stroke="none" stroke-width="0" fill="#d0bfff"></path><path d="M32 0 C117.48 0.93, 202.06 0.16, 269 0 M32 0 C124.53 0.16, 215.64 -1.44, 269 0 M269 0 C289.42 1.62, 299.21 10.36, 301 32 M269 0 C290.64 -0.27, 299.94 11.04, 301 32 M301 32 C301.33 173.27, 301.18 312.37, 301 457 M301 32 C302.63 172.78, 303.17 313.11, 301 457 M301 457 C302.19 479.32, 291.73 490.37, 269 489 M301 457 C302.51 479.23, 288.86 491.12, 269 489 M269 489 C187.55 488.14, 105.91 487.39, 32 489 M269 489 C179.86 488.17, 90.24 489.11, 32 489 M32 489 C11.03 490.51, 0.52 477.71, 0 457 M32 489 C9.4 488.55, 1.94 477.77, 0 457 M0 457 C-3.05 333.14, -1.29 209.87, 0 32 M0 457 C0.85 291.15, 0.34 125.5, 0 32 M0 32 C-0.14 9.96, 10.67 -1.97, 32 0 M0 32 C1.65 9.43, 12.01 -1.64, 32 0" stroke="#1e1e1e" stroke-width="2" fill="none"></path></g><g transform="translate(71.99166870117188 935.9801587301586) rotate(0 88.50833129882812 22.500000000000057)"><text x="88.50833129882812" y="0" font-family="Virgil, Segoe UI Emoji" font-size="36px" fill="#1e1e1e" text-anchor="middle" style="white-space: pre;" direction="ltr" dominant-baseline="text-before-edge">Web-Client</text></g><g stroke-linecap="round" transform="translate(740.7142857142858 318.123015873016) rotate(0 689.1428571428571 679.4285714285714)"><path d="M32 0 C307.76 2.26, 583.64 2.41, 1346.29 0 M1346.29 0 C1366.96 -1.51, 1377.53 9.96, 1378.29 32 M1378.29 32 C1376.77 369.71, 1376.76 707.25, 1378.29 1326.86 M1378.29 1326.86 C1378.82 1348.6, 1366.71 1359.28, 1346.29 1358.86 M1346.29 1358.86 C905.86 1359.5, 465.59 1360.35, 32 1358.86 M32 1358.86 C9.07 1357.88, -0.41 1346.81, 0 1326.86 M0 1326.86 C1.69 850.28, 1.48 373.52, 0 32 M0 32 C1.61 11.91, 9.56 0.13, 32 0" stroke="#1e1e1e" stroke-width="2.5" fill="none" stroke-dasharray="1.5 8"></path></g><g transform="translate(1328.563492063492 254.4999999999998) rotate(0 71.39167022705078 22.5)"><text x="0" y="0" font-family="Virgil, Segoe UI Emoji" font-size="36px" fill="#1e1e1e" text-anchor="start" style="white-space: pre;" direction="ltr" dominant-baseline="text-before-edge">Backend</text></g><g stroke-linecap="round" transform="translate(769.6349206349206 582.9761904761901) rotate(0 66.42857142857127 360.71428571428595)"><path d="M32 0 C60.78 0.39, 83.28 3.4, 100.86 0 C122.72 3.56, 129.96 7.85, 132.86 32 C133.1 210.03, 134.01 388.73, 132.86 689.43 C135.9 713.73, 120.03 717.88, 100.86 721.43 C85.55 721.18, 65.93 721.4, 32 721.43 C12.93 721.05, 1.58 710.07, 0 689.43 C-5.39 532.81, -3.95 376.31, 0 32 C-2.8 9.11, 14.02 3.23, 32 0" stroke="none" stroke-width="0" fill="#eaddd7"></path><path d="M32 0 C57.6 0.47, 84.49 -0.58, 100.86 0 M32 0 C58.63 -1.11, 83.28 -0.84, 100.86 0 M100.86 0 C121.81 -0.05, 130.91 9.35, 132.86 32 M100.86 0 C123.48 0.96, 133.99 11.41, 132.86 32 M132.86 32 C132.5 203.6, 132.47 376.94, 132.86 689.43 M132.86 32 C131.63 228.4, 131.43 424.22, 132.86 689.43 M132.86 689.43 C130.95 712.53, 123.48 723.05, 100.86 721.43 M132.86 689.43 C134.88 710.87, 122.26 719.28, 100.86 721.43 M100.86 721.43 C74.34 721.89, 47.42 723.21, 32 721.43 M100.86 721.43 C78.33 721.62, 57.6 721.31, 32 721.43 M32 721.43 C9.35 723.32, -1.95 711.63, 0 689.43 M32 721.43 C10.52 719.29, -0.52 712.97, 0 689.43 M0 689.43 C-1.76 540.18, -1.79 390.59, 0 32 M0 689.43 C-2.23 466.48, -2 244.27, 0 32 M0 32 C-0.76 12.3, 10.95 -0.03, 32 0 M0 32 C-1.91 11.77, 10.74 -1.58, 32 0" stroke="#1e1e1e" stroke-width="2" fill="none"></path></g><g transform="translate(775.6718256511383 908.690476190476) rotate(0 60.391666412353516 35)"><text x="60.391666412353516" y="0" font-family="Virgil, Segoe UI Emoji" font-size="28px" fill="#1e1e1e" text-anchor="middle" style="white-space: pre;" direction="ltr" dominant-baseline="text-before-edge">API </text><text x="60.391666412353516" y="35" font-family="Virgil, Segoe UI Emoji" font-size="28px" fill="#1e1e1e" text-anchor="middle" style="white-space: pre;" direction="ltr" dominant-baseline="text-before-edge">Gateway</text></g><g stroke-linecap="round" transform="translate(1578.1587301587308 886.0476190476185) rotate(0 91.42857142857133 109.28571428571422)"><path d="M32 0 C63.58 -2.08, 103.28 0.17, 150.86 0 C173.46 -1.19, 185.62 10.65, 182.86 32 C181.35 71.54, 182.18 110.16, 182.86 186.57 C180.37 209.14, 169.36 217.16, 150.86 218.57 C113.97 222.26, 72.47 220.08, 32 218.57 C9.92 218.78, 3.24 206.24, 0 186.57 C-2.7 147.32, -1.23 113.63, 0 32 C1.08 11.71, 11.9 0.77, 32 0" stroke="none" stroke-width="0" fill="#ffffff"></path><path d="M32 0 C72.48 -0.31, 113.22 -1.11, 150.86 0 M32 0 C59.02 0.74, 87.62 0.71, 150.86 0 M150.86 0 C173.67 -1.93, 182.06 12.11, 182.86 32 M150.86 0 C171.04 0.65, 181.95 9.65, 182.86 32 M182.86 32 C184.15 63.59, 185.41 99.12, 182.86 186.57 M182.86 32 C183.68 79.69, 183.8 126.74, 182.86 186.57 M182.86 186.57 C183.18 209.76, 171.69 218.98, 150.86 218.57 M182.86 186.57 C183.39 206.44, 172.38 219.65, 150.86 218.57 M150.86 218.57 C119.18 218.92, 88.78 220.45, 32 218.57 M150.86 218.57 C119.48 219.67, 88.37 220.11, 32 218.57 M32 218.57 C10.9 218.96, 1.64 209.3, 0 186.57 M32 218.57 C12.75 220.76, -1.36 206.85, 0 186.57 M0 186.57 C1.02 145.15, -0.91 100.78, 0 32 M0 186.57 C-1.27 139.7, -0.82 91.75, 0 32 M0 32 C-0.78 10.42, 12.62 0.46, 32 0 M0 32 C-1.65 11.07, 11.39 0.18, 32 0" stroke="#1e1e1e" stroke-width="2" fill="none"></path></g><g stroke-linecap="round" transform="translate(1566.7301587301592 896.0476190476185) rotate(0 91.42857142857133 109.28571428571422)"><path d="M32 0 C70.04 3.65, 112.42 3.16, 150.86 0 C171 2.77, 182.84 8.97, 182.86 32 C185.23 72.56, 184.76 109.73, 182.86 186.57 C184.09 205.07, 170.78 219.74, 150.86 218.57 C115.5 220.81, 76.03 219.39, 32 218.57 C10.88 221.81, -1.67 205.88, 0 186.57 C0 132.41, 3.97 78.92, 0 32 C1.04 11.9, 11.43 1.9, 32 0" stroke="none" stroke-width="0" fill="#ffffff"></path><path d="M32 0 C61.09 -1.06, 89.56 -0.75, 150.86 0 M32 0 C66.26 0.89, 100.09 1.75, 150.86 0 M150.86 0 C170.26 -0.8, 184.31 9.67, 182.86 32 M150.86 0 C172.84 -0.91, 181.84 8.76, 182.86 32 M182.86 32 C181.67 94.08, 183.62 154.09, 182.86 186.57 M182.86 32 C183.86 90.03, 183.69 148.71, 182.86 186.57 M182.86 186.57 C184.71 207.41, 172.6 219.03, 150.86 218.57 M182.86 186.57 C181.39 208.1, 173.27 217.53, 150.86 218.57 M150.86 218.57 C103.1 216.24, 57.21 217.02, 32 218.57 M150.86 218.57 C117.71 218.76, 84.87 218.66, 32 218.57 M32 218.57 C11.06 220.21, 1.39 209.72, 0 186.57 M32 218.57 C12.86 217.21, -1.06 207.34, 0 186.57 M0 186.57 C0 135.52, -1.79 85.6, 0 32 M0 186.57 C1.09 127.62, 0.7 67.32, 0 32 M0 32 C-0.25 12.62, 11.13 -1.43, 32 0 M0 32 C0.41 11.39, 10.85 -0.17, 32 0" stroke="#1e1e1e" stroke-width="2" fill="none"></path></g><g stroke-linecap="round" transform="translate(1556.7301587301592 907.47619047619) rotate(0 91.42857142857133 109.28571428571422)"><path d="M32 0 C69.39 1.41, 104.53 0.05, 150.86 0 C174.96 -0.02, 181.16 9.21, 182.86 32 C183.02 89.09, 180.08 147.48, 182.86 186.57 C180.03 206.49, 173.36 219.07, 150.86 218.57 C106.1 219.47, 59.25 219.93, 32 218.57 C13.91 216.9, -2.03 209.77, 0 186.57 C1.18 151.36, 2.05 112.4, 0 32 C1.23 11.43, 12.57 3.53, 32 0" stroke="none" stroke-width="0" fill="#ffffff"></path><path d="M32 0 C67.32 -0.87, 104.56 -0.19, 150.86 0 M32 0 C64.21 -0.1, 97.4 -1.45, 150.86 0 M150.86 0 C171.39 1.45, 181.86 11.23, 182.86 32 M150.86 0 C171.29 -1.01, 180.95 12.84, 182.86 32 M182.86 32 C183.81 86.38, 182.83 142.38, 182.86 186.57 M182.86 32 C182.05 83.87, 182.46 136.05, 182.86 186.57 M182.86 186.57 C182.36 208.31, 172.65 217.29, 150.86 218.57 M182.86 186.57 C183.05 208.98, 171.15 220.85, 150.86 218.57 M150.86 218.57 C106.79 219.55, 65.01 217.97, 32 218.57 M150.86 218.57 C105.81 219.31, 60.46 218.93, 32 218.57 M32 218.57 C12.31 219.96, 1.82 209.81, 0 186.57 M32 218.57 C9.3 217.51, -0.56 208.53, 0 186.57 M0 186.57 C-1.6 127.79, -0.96 71.91, 0 32 M0 186.57 C0.43 144.51, -0.44 101.74, 0 32 M0 32 C1.96 11.13, 9.23 0.35, 32 0 M0 32 C0.72 10.85, 10.49 0.87, 32 0" stroke="#1e1e1e" stroke-width="2" fill="none"></path></g><g stroke-linecap="round"><g transform="translate(1764.7301587301588 976.9523809523806) rotate(0 10.714285714285666 -16.428571428571445)"><path d="M-0.97 -0.59 C2.56 -6.08, 16.96 -27.49, 20.64 -33.04" stroke="#1e1e1e" stroke-width="2.5" fill="none" stroke-dasharray="1.5 8"></path></g></g><mask></mask><g stroke-linecap="round" transform="translate(1545.3015873015875 918.9047619047618) rotate(0 91.42857142857133 109.28571428571433)"><path d="M32 0 C73.22 3.52, 110.11 1.51, 150.86 0 C173.45 3, 185.07 9.11, 182.86 32 C178.7 88.49, 184.2 147.24, 182.86 186.57 C181.63 210.17, 175.19 221.57, 150.86 218.57 C104.66 219.39, 64.58 217.12, 32 218.57 C12.05 221.08, -1.9 206.44, 0 186.57 C0.05 140.86, 0.48 90.85, 0 32 C1.83 9.06, 13.48 3.39, 32 0" stroke="none" stroke-width="0" fill="#a5d8ff"></path><path d="M32 0 C75.1 0.77, 117.16 0.66, 150.86 0 M32 0 C57.29 -0.83, 83.64 0.86, 150.86 0 M150.86 0 C173.83 0.26, 182.49 9.82, 182.86 32 M150.86 0 C172.7 -1.39, 182.79 10.61, 182.86 32 M182.86 32 C183.79 86.03, 183.83 143.36, 182.86 186.57 M182.86 32 C180.65 92.42, 182.2 154.51, 182.86 186.57 M182.86 186.57 C181.93 207.95, 171.03 217.78, 150.86 218.57 M182.86 186.57 C183.25 207.2, 171.36 220.78, 150.86 218.57 M150.86 218.57 C111.68 218.14, 77.07 219.86, 32 218.57 M150.86 218.57 C105.57 219.88, 62.44 219.64, 32 218.57 M32 218.57 C10.65 217.18, -1.73 209.48, 0 186.57 M32 218.57 C8.43 216.77, -0.65 207.37, 0 186.57 M0 186.57 C-0.38 146.5, -0.3 107.58, 0 32 M0 186.57 C0.63 150.49, 1.91 115.66, 0 32 M0 32 C0.43 11.26, 11 -0.31, 32 0 M0 32 C-1.66 11.78, 8.52 -2.02, 32 0" stroke="#1e1e1e" stroke-width="2" fill="none"></path></g><g transform="translate(1569.7468289572098 1003.190476190476) rotate(0 66.98332977294922 25)"><text x="66.98332977294922" y="0" font-family="Virgil, Segoe UI Emoji" font-size="20px" fill="#1e1e1e" text-anchor="middle" style="white-space: pre;" direction="ltr" dominant-baseline="text-before-edge">Audio To Midi</text><text x="66.98332977294922" y="25" font-family="Virgil, Segoe UI Emoji" font-size="20px" fill="#1e1e1e" text-anchor="middle" style="white-space: pre;" direction="ltr" dominant-baseline="text-before-edge">Worker</text></g><g stroke-linecap="round" transform="translate(1052.5634920634914 347.47619047619014) rotate(0 365.7142857142859 34.28571428571428)"><path d="M17.14 0 C256.78 -5.79, 497.43 -5.95, 714.29 0 C723.33 1.68, 731.27 6.76, 731.43 17.14 C733.6 27.59, 733.3 29.13, 731.43 51.43 C733.98 62.79, 728.32 71.84, 714.29 68.57 C523.43 71.78, 333.48 73.33, 17.14 68.57 C6.82 69.2, 0.34 62.79, 0 51.43 C2.82 36.87, -1.65 29.6, 0 17.14 C3.43 5, 3.88 2.68, 17.14 0" stroke="none" stroke-width="0" fill="#ffec99"></path><path d="M17.14 0 C180.19 -2.6, 344.19 -2.4, 714.29 0 M17.14 0 C223.73 -1.48, 430.4 -2.02, 714.29 0 M714.29 0 C726.82 0.71, 732.82 4.54, 731.43 17.14 M714.29 0 C724.18 -0.69, 729.49 7.11, 731.43 17.14 M731.43 17.14 C731.95 26.19, 730.63 38.2, 731.43 51.43 M731.43 17.14 C730.86 30.85, 732.24 43.56, 731.43 51.43 M731.43 51.43 C729.77 62.21, 726.85 67.59, 714.29 68.57 M731.43 51.43 C732.06 65.09, 724.19 66.61, 714.29 68.57 M714.29 68.57 C460.64 67.98, 205.36 68.27, 17.14 68.57 M714.29 68.57 C445.97 69.53, 178.29 69.34, 17.14 68.57 M17.14 68.57 C6.64 67.16, 1.71 62.11, 0 51.43 M17.14 68.57 C6.56 66.29, 1.42 61.71, 0 51.43 M0 51.43 C-0.63 37.27, -2.07 26.39, 0 17.14 M0 51.43 C-0.86 38.57, 0.03 27.47, 0 17.14 M0 17.14 C0.66 5.34, 4.56 -1.84, 17.14 0 M0 17.14 C1.93 7.87, 5.7 1.62, 17.14 0" stroke="#1e1e1e" stroke-width="2" fill="none"></path></g><g transform="translate(1255.9111090766055 364.2619047619045) rotate(0 162.36666870117188 17.5)"><text x="162.36666870117188" y="0" font-family="Virgil, Segoe UI Emoji" font-size="28px" fill="#1e1e1e" text-anchor="middle" style="white-space: pre;" direction="ltr" dominant-baseline="text-before-edge">Message Broker (Redis)</text></g><g stroke-linecap="round" transform="translate(1848.1587301587304 588.9047619047611) rotate(0 91.42857142857122 109.28571428571428)"><path d="M32 0 C65.04 3.25, 94.55 -1.24, 150.86 0 C174.71 -1.07, 186.18 13.93, 182.86 32 C179.52 85.97, 182.24 143.51, 182.86 186.57 C185.82 207.94, 175.77 221.12, 150.86 218.57 C106.07 215.74, 56.44 215.49, 32 218.57 C13.81 216.77, 3.05 210.64, 0 186.57 C-0.25 144.63, 0.92 98.73, 0 32 C0.08 12.71, 12.14 2.52, 32 0" stroke="none" stroke-width="0" fill="#ffffff"></path><path d="M32 0 C61.77 0.54, 90.92 -1.99, 150.86 0 M32 0 C78.25 -0.53, 123.82 -1.23, 150.86 0 M150.86 0 C171.74 0.41, 180.99 10.67, 182.86 32 M150.86 0 C172.38 -1.78, 183.63 8.5, 182.86 32 M182.86 32 C183.37 83.62, 185.44 132.71, 182.86 186.57 M182.86 32 C182.68 69.76, 181.42 108.47, 182.86 186.57 M182.86 186.57 C180.86 207.15, 172.33 219.16, 150.86 218.57 M182.86 186.57 C184.03 208.94, 171.06 218.15, 150.86 218.57 M150.86 218.57 C115.79 217.43, 79.04 217.65, 32 218.57 M150.86 218.57 C123.56 218.71, 97.22 218.82, 32 218.57 M32 218.57 C9.05 218.38, 1.6 208.3, 0 186.57 M32 218.57 C8.62 216.47, -1.71 205.74, 0 186.57 M0 186.57 C-0.14 140.33, -1.04 94.69, 0 32 M0 186.57 C-1.91 143.05, -0.52 99.5, 0 32 M0 32 C-0.99 9.44, 9.37 1.35, 32 0 M0 32 C-2.28 11.01, 12.57 0.59, 32 0" stroke="#1e1e1e" stroke-width="2" fill="none"></path></g><g stroke-linecap="round" transform="translate(1836.7301587301588 598.9047619047611) rotate(0 91.42857142857122 109.28571428571428)"><path d="M32 0 C68.22 -0.74, 106.93 -1.1, 150.86 0 C169.61 -3.42, 184.27 10.97, 182.86 32 C182.7 83.49, 182.91 136.42, 182.86 186.57 C183.89 206.12, 173.64 216.98, 150.86 218.57 C128.57 220.76, 98.24 218.17, 32 218.57 C12.74 216.98, 2.67 205.83, 0 186.57 C-3.61 124.14, -0.59 67.39, 0 32 C1.87 9.19, 7.33 -1.05, 32 0" stroke="none" stroke-width="0" fill="#ffffff"></path><path d="M32 0 C72.08 2.77, 113.63 2.43, 150.86 0 M32 0 C65.63 -0.88, 97.02 -1.28, 150.86 0 M150.86 0 C173.81 -1.26, 183.63 9.99, 182.86 32 M150.86 0 C172.87 1.92, 180.7 10.49, 182.86 32 M182.86 32 C183.22 78.54, 181.37 126.9, 182.86 186.57 M182.86 32 C183.25 65.31, 182.39 98.28, 182.86 186.57 M182.86 186.57 C183.09 207.34, 172.87 219.6, 150.86 218.57 M182.86 186.57 C183.44 206.75, 170.79 219.49, 150.86 218.57 M150.86 218.57 C115.44 219.45, 80.87 219.4, 32 218.57 M150.86 218.57 C118.26 217.92, 83.8 218.39, 32 218.57 M32 218.57 C9.91 216.86, 1.89 208.86, 0 186.57 M32 218.57 C12.48 216.45, 2.21 209.26, 0 186.57 M0 186.57 C2.4 125.9, 1.03 66.63, 0 32 M0 186.57 C-0.47 129.23, -1.71 70.41, 0 32 M0 32 C0.18 12.03, 11.68 0.28, 32 0 M0 32 C1.88 10.94, 9.28 0.94, 32 0" stroke="#1e1e1e" stroke-width="2" fill="none"></path></g><g stroke-linecap="round" transform="translate(1826.7301587301588 610.3333333333327) rotate(0 91.42857142857122 109.28571428571428)"><path d="M32 0 C58.85 1, 83.42 -0.11, 150.86 0 C172.87 2.74, 185.67 10.39, 182.86 32 C183.02 67.91, 183.4 102.51, 182.86 186.57 C180.65 209.52, 173.07 220.8, 150.86 218.57 C118.96 221.68, 94.62 217.02, 32 218.57 C13.54 219.38, -2.92 205.36, 0 186.57 C1.32 129.16, 0.65 75.18, 0 32 C-3.04 11.91, 9.1 -1.51, 32 0" stroke="none" stroke-width="0" fill="#ffffff"></path><path d="M32 0 C75.13 1.73, 115.79 -0.84, 150.86 0 M32 0 C77.21 -1.7, 122.72 -0.56, 150.86 0 M150.86 0 C171.66 1.9, 184.81 12.46, 182.86 32 M150.86 0 C173.24 1.79, 184.6 11.54, 182.86 32 M182.86 32 C183.28 69.87, 184.12 106.27, 182.86 186.57 M182.86 32 C183.78 67.66, 184.18 104.27, 182.86 186.57 M182.86 186.57 C183.96 207.94, 171.13 217.54, 150.86 218.57 M182.86 186.57 C184.47 208.96, 170.07 216.28, 150.86 218.57 M150.86 218.57 C116.19 219.28, 80.71 219.53, 32 218.57 M150.86 218.57 C107.24 219.04, 65.54 217.87, 32 218.57 M32 218.57 C9.03 218.28, 0.31 206.06, 0 186.57 M32 218.57 C11.74 218.42, 1 205.73, 0 186.57 M0 186.57 C-0.24 147.57, -1.06 104.83, 0 32 M0 186.57 C0.76 129.27, -0.33 70.17, 0 32 M0 32 C-0.59 10.56, 10.09 -0.55, 32 0 M0 32 C-1.25 10.45, 12.85 2.25, 32 0" stroke="#1e1e1e" stroke-width="2" fill="none"></path></g><g stroke-linecap="round"><g transform="translate(2034.730158730158 679.8095238095233) rotate(0 10.71428571428578 -16.428571428571445)"><path d="M1.1 -0.93 C4.47 -6.23, 18.03 -26.83, 21.25 -32.14" stroke="#1e1e1e" stroke-width="2.5" fill="none" stroke-dasharray="1.5 8"></path></g></g><mask></mask><g stroke-linecap="round" transform="translate(1818.15873015873 618.9047619047614) rotate(0 91.42857142857144 109.28571428571428)"><path d="M32 0 C66.27 -0.71, 99.42 1.59, 150.86 0 C170.51 -3.51, 179.94 13.17, 182.86 32 C186.35 68.9, 187 108.45, 182.86 186.57 C182.66 208.49, 172.67 217.44, 150.86 218.57 C107.06 223.06, 58.82 221.89, 32 218.57 C11.72 216.3, -1.36 209.73, 0 186.57 C-0.21 143.75, 3 105.73, 0 32 C-2.96 8.53, 11.2 0.72, 32 0" stroke="none" stroke-width="0" fill="#ffc9c9"></path><path d="M32 0 C68.19 -1.64, 106.53 -2.55, 150.86 0 M32 0 C74.48 -0.98, 118.52 -0.76, 150.86 0 M150.86 0 C173.75 1.88, 183.69 10.31, 182.86 32 M150.86 0 C174.3 -0.57, 182.06 9.57, 182.86 32 M182.86 32 C184.29 71.06, 181.75 108.66, 182.86 186.57 M182.86 32 C184.45 73.42, 183.91 112.82, 182.86 186.57 M182.86 186.57 C184.15 207.67, 171.35 219.23, 150.86 218.57 M182.86 186.57 C183.77 207.15, 172.94 218.7, 150.86 218.57 M150.86 218.57 C104.27 216.31, 59.57 218.24, 32 218.57 M150.86 218.57 C119.45 218.9, 86.85 217.49, 32 218.57 M32 218.57 C11.61 217.86, 1.68 209.39, 0 186.57 M32 218.57 C10.34 219.9, 2.03 209.89, 0 186.57 M0 186.57 C0.53 148.58, 0.09 113.35, 0 32 M0 186.57 C1.41 128.85, 0.66 73.47, 0 32 M0 32 C-0.08 10.48, 9.72 -0.6, 32 0 M0 32 C0.79 9.45, 8.76 -0.63, 32 0" stroke="#1e1e1e" stroke-width="2" fill="none"></path></g><g transform="translate(1845.9873031131801 703.1904761904756) rotate(0 63.599998474121094 25)"><text x="63.599998474121094" y="0" font-family="Virgil, Segoe UI Emoji" font-size="20px" fill="#1e1e1e" text-anchor="middle" style="white-space: pre;" direction="ltr" dominant-baseline="text-before-edge">Transcription</text><text x="63.599998474121094" y="25" font-family="Virgil, Segoe UI Emoji" font-size="20px" fill="#1e1e1e" text-anchor="middle" style="white-space: pre;" direction="ltr" dominant-baseline="text-before-edge">Worker</text></g><g stroke-linecap="round" transform="translate(1259.5873015873017 876.0476190476182) rotate(0 91.42857142857133 109.28571428571433)"><path d="M32 0 C74.22 -3.7, 112.6 2.69, 150.86 0 C175.41 -2.68, 183.47 9.89, 182.86 32 C179.28 81.35, 184.27 127.04, 182.86 186.57 C180.32 207.24, 168.95 217.51, 150.86 218.57 C125.26 218.4, 101.26 217.43, 32 218.57 C10.38 217.27, 3.04 211.02, 0 186.57 C6.09 155.62, -0.04 123.61, 0 32 C-2.61 10.04, 12.01 -3.52, 32 0" stroke="none" stroke-width="0" fill="#ffffff"></path><path d="M32 0 C69.02 -1.54, 111.51 0.87, 150.86 0 M32 0 C58.78 0.15, 83.19 0.28, 150.86 0 M150.86 0 C171.87 -1.35, 183.01 9.89, 182.86 32 M150.86 0 C170.51 -1.15, 182.32 11.37, 182.86 32 M182.86 32 C183.36 81.95, 183.72 136.91, 182.86 186.57 M182.86 32 C181.79 93.1, 181.58 154.26, 182.86 186.57 M182.86 186.57 C181.58 206.83, 172.63 217.65, 150.86 218.57 M182.86 186.57 C184.5 207.7, 172.28 219.12, 150.86 218.57 M150.86 218.57 C106.64 218.74, 64.18 216.6, 32 218.57 M150.86 218.57 C108.42 217.02, 68.92 216.88, 32 218.57 M32 218.57 C9.66 219.15, 0.67 206.95, 0 186.57 M32 218.57 C11.18 220.25, -1.16 208.27, 0 186.57 M0 186.57 C0.93 145.97, -0.28 106.39, 0 32 M0 186.57 C0.04 143.47, 0.29 100.16, 0 32 M0 32 C0.7 9.82, 8.96 -1.41, 32 0 M0 32 C-1.72 8.53, 9.29 2.15, 32 0" stroke="#1e1e1e" stroke-width="2" fill="none"></path></g><g stroke-linecap="round" transform="translate(1248.1587301587301 886.0476190476182) rotate(0 91.42857142857133 109.28571428571433)"><path d="M32 0 C53.35 0.43, 84.56 1.41, 150.86 0 C169.51 0.62, 182.08 10.55, 182.86 32 C188.46 79.35, 188.29 121.15, 182.86 186.57 C182.2 204.66, 171.13 215.17, 150.86 218.57 C108.21 217.15, 66.31 217.59, 32 218.57 C9.37 221.61, 3.11 204.42, 0 186.57 C1.66 151.72, 1.04 119.42, 0 32 C-0.63 12.01, 7.14 2.23, 32 0" stroke="none" stroke-width="0" fill="#ffffff"></path><path d="M32 0 C60.67 2.95, 93.42 -0.55, 150.86 0 M32 0 C72.85 -1.78, 114.41 -1.03, 150.86 0 M150.86 0 C170.84 0.15, 182.08 9.2, 182.86 32 M150.86 0 C171.04 -0.53, 183.56 11.46, 182.86 32 M182.86 32 C182.22 86.64, 185.49 143.1, 182.86 186.57 M182.86 32 C182.14 68.59, 182.11 105.2, 182.86 186.57 M182.86 186.57 C181.79 208.35, 171.27 220, 150.86 218.57 M182.86 186.57 C182.65 207.99, 172.74 220.09, 150.86 218.57 M150.86 218.57 C115.06 218.52, 76.76 219.13, 32 218.57 M150.86 218.57 C121.03 218.36, 91.6 216.89, 32 218.57 M32 218.57 C11.24 219.24, -0.95 208.35, 0 186.57 M32 218.57 C12.35 217.42, 0.36 206.97, 0 186.57 M0 186.57 C0.1 146.23, 0.6 107.45, 0 32 M0 186.57 C-0.5 147.21, -0.57 109.12, 0 32 M0 32 C-0.85 8.96, 9.26 -1.5, 32 0 M0 32 C-2.14 9.29, 12.82 0.68, 32 0" stroke="#1e1e1e" stroke-width="2" fill="none"></path></g><g stroke-linecap="round" transform="translate(1238.1587301587301 897.4761904761898) rotate(0 91.42857142857133 109.28571428571433)"><path d="M32 0 C71.21 4.99, 109.17 -0.62, 150.86 0 C172.81 -0.77, 182.74 10.54, 182.86 32 C181.67 93.43, 177.63 147.58, 182.86 186.57 C179.61 206.84, 168.79 220.17, 150.86 218.57 C105.85 214.85, 62.02 216.25, 32 218.57 C13.71 221.68, -3.49 204.62, 0 186.57 C-5.33 146.76, -5.35 106.67, 0 32 C1.34 7.14, 12.9 -2.58, 32 0" stroke="none" stroke-width="0" fill="#ffffff"></path><path d="M32 0 C68.23 1.73, 99.07 1.97, 150.86 0 M32 0 C59.38 0.24, 88.41 0.02, 150.86 0 M150.86 0 C172.34 -0.78, 181.4 9.67, 182.86 32 M150.86 0 C171.66 0.7, 183.65 11.89, 182.86 32 M182.86 32 C182.66 91.11, 184.53 145.99, 182.86 186.57 M182.86 32 C182.33 71.99, 182.03 111.68, 182.86 186.57 M182.86 186.57 C183.3 206.99, 173.62 218.39, 150.86 218.57 M182.86 186.57 C182.94 208.45, 173.71 218.67, 150.86 218.57 M150.86 218.57 C117.4 216.99, 84.2 217.71, 32 218.57 M150.86 218.57 C126.19 217.24, 99.11 218.21, 32 218.57 M32 218.57 C11.34 217.62, 0.45 209.37, 0 186.57 M32 218.57 C9.51 218.93, -0.94 206.86, 0 186.57 M0 186.57 C-1.16 146.53, -0.58 105.6, 0 32 M0 186.57 C0.64 133.88, 1.45 80.62, 0 32 M0 32 C-1.71 9.26, 9.17 -1.86, 32 0 M0 32 C-1.38 12.82, 11.35 -2.1, 32 0" stroke="#1e1e1e" stroke-width="2" fill="none"></path></g><g stroke-linecap="round"><g transform="translate(1446.1587301587297 966.9523809523804) rotate(0 10.714285714285666 -16.428571428571445)"><path d="M1.13 0.44 C4.72 -4.77, 17.2 -26.87, 20.46 -32.27" stroke="#1e1e1e" stroke-width="2.5" fill="none" stroke-dasharray="1.5 8"></path></g></g><mask></mask><g stroke-linecap="round" transform="translate(1226.7301587301583 907.47619047619) rotate(0 91.42857142857133 109.28571428571422)"><path d="M32 0 C58.96 -5.59, 91.1 -3.36, 150.86 0 C173.37 1.53, 184.36 12.84, 182.86 32 C185.37 83.45, 185.65 129.51, 182.86 186.57 C180.87 207.03, 173.41 221.78, 150.86 218.57 C118.15 222.77, 89.2 222.03, 32 218.57 C12.09 217.16, 2 210.6, 0 186.57 C3.8 122.18, 1.57 62.97, 0 32 C-2.37 9.41, 12.58 1.1, 32 0" stroke="none" stroke-width="0" fill="#b2f2bb"></path><path d="M32 0 C79.97 0.99, 125.2 1.57, 150.86 0 M32 0 C73.51 -0.37, 113.12 -0.45, 150.86 0 M150.86 0 C170.66 0.5, 181.08 9.47, 182.86 32 M150.86 0 C173.51 -0.89, 183.97 9.38, 182.86 32 M182.86 32 C181.78 68.39, 182.32 107.66, 182.86 186.57 M182.86 32 C182.67 67.9, 183.56 102.91, 182.86 186.57 M182.86 186.57 C184.3 207.68, 170.4 217.17, 150.86 218.57 M182.86 186.57 C183.79 207.38, 170.74 219.76, 150.86 218.57 M150.86 218.57 C114.61 219.22, 73.97 217.95, 32 218.57 M150.86 218.57 C110 218.92, 70.4 217.63, 32 218.57 M32 218.57 C11.96 218.12, -1.67 209.9, 0 186.57 M32 218.57 C12.43 218.47, -1.61 209.76, 0 186.57 M0 186.57 C-0.21 127.69, 1.01 72.73, 0 32 M0 186.57 C0.32 146.4, 1.22 105.23, 0 32 M0 32 C0.01 12, 9.71 -1.64, 32 0 M0 32 C-1.09 12.68, 8.82 0.32, 32 0" stroke="#1e1e1e" stroke-width="2" fill="none"></path></g><g transform="translate(1265.992062220497 991.7619047619042) rotate(0 52.16666793823242 25)"><text x="52.16666793823242" y="0" font-family="Virgil, Segoe UI Emoji" font-size="20px" fill="#1e1e1e" text-anchor="middle" style="white-space: pre;" direction="ltr" dominant-baseline="text-before-edge">Separation</text><text x="52.16666793823242" y="25" font-family="Virgil, Segoe UI Emoji" font-size="20px" fill="#1e1e1e" text-anchor="middle" style="white-space: pre;" direction="ltr" dominant-baseline="text-before-edge">Worker</text></g><g stroke-linecap="round"><g transform="translate(918.1587301587299 935.1425247080894) rotate(0 127.55843810841145 -251.23792902071148)"><path d="M1.1 0.37 C43.31 -83.28, 211.84 -418.41, 254.36 -502.14 M0.22 -0.48 C42.71 -84.49, 214.03 -420.15, 256.67 -504.08" stroke="#1e1e1e" stroke-width="2" fill="none"></path></g><g transform="translate(918.1587301587299 935.1425247080894) rotate(0 127.55843810841145 -251.23792902071148)"><path d="M253.63 -479.27 C255.49 -490.31, 256.63 -496.94, 256.67 -504.08 M253.63 -479.27 C253.81 -487.04, 255.33 -495.55, 256.67 -504.08" stroke="#1e1e1e" stroke-width="2" fill="none"></path></g><g transform="translate(918.1587301587299 935.1425247080894) rotate(0 127.55843810841145 -251.23792902071148)"><path d="M238.39 -487.03 C246.23 -495.16, 253.36 -498.74, 256.67 -504.08 M238.39 -487.03 C243.84 -492.28, 250.57 -498.14, 256.67 -504.08" stroke="#1e1e1e" stroke-width="2" fill="none"></path></g></g><mask></mask><g stroke-linecap="round"><g transform="translate(1139.0158730158728 431.7142857142853) rotate(0 -106.142857142857 209.31642436528455)"><path d="M1.18 0.49 C-34.23 70.22, -177.26 349.98, -212.95 419.51 M0.33 -0.3 C-34.63 69.61, -175.45 348.05, -210.59 417.85" stroke="#1e1e1e" stroke-width="2" fill="none"></path></g><g transform="translate(1139.0158730158728 431.7142857142853) rotate(0 -106.142857142857 209.31642436528455)"><path d="M-207.64 393.02 C-207.34 398.25, -207.45 404.46, -210.59 417.85 M-207.64 393.02 C-207.72 398.08, -209.8 404.06, -210.59 417.85" stroke="#1e1e1e" stroke-width="2" fill="none"></path></g><g transform="translate(1139.0158730158728 431.7142857142853) rotate(0 -106.142857142857 209.31642436528455)"><path d="M-192.38 400.73 C-196.03 404.15, -200.02 408.39, -210.59 417.85 M-192.38 400.73 C-195.81 404.12, -201.23 408.41, -210.59 417.85" stroke="#1e1e1e" stroke-width="2" fill="none"></path></g></g><mask></mask><g stroke-linecap="round"><g transform="translate(1582.3717189334575 421.23809523809484) rotate(0 114.7506484697791 99.5667565172401)"><path d="M0.51 -0.55 C38.67 32.78, 190.5 165.7, 228.63 198.95 M-0.68 1.77 C37.88 35.38, 192.71 167.32, 230.88 200.39" stroke="#1e1e1e" stroke-width="2" fill="none"></path></g><g transform="translate(1582.3717189334575 421.23809523809484) rotate(0 114.7506484697791 99.5667565172401)"><path d="M207.48 191.57 C212.84 192.41, 219.81 195.83, 230.88 200.39 M207.48 191.57 C213.3 194.04, 220.03 195.83, 230.88 200.39" stroke="#1e1e1e" stroke-width="2" fill="none"></path></g><g transform="translate(1582.3717189334575 421.23809523809484) rotate(0 114.7506484697791 99.5667565172401)"><path d="M218.62 178.6 C220.85 183, 224.79 189.95, 230.88 200.39 M218.62 178.6 C221.24 184.78, 224.8 190.26, 230.88 200.39" stroke="#1e1e1e" stroke-width="2" fill="none"></path></g></g><mask></mask><g stroke-linecap="round"><g transform="translate(1482.7651727650086 424.09523809523773) rotate(0 33.43060527957846 242.1428571428571)"><path d="M0.95 -1.15 C11.86 79.3, 55.37 402.39, 66.26 483.21 M-0.01 0.86 C11.22 81.38, 57.78 403.52, 68.66 484.18" stroke="#1e1e1e" stroke-width="2" fill="none"></path></g><g transform="translate(1482.7651727650086 424.09523809523773) rotate(0 33.43060527957846 242.1428571428571)"><path d="M56.92 462.11 C59.4 469.13, 63.85 477.31, 68.66 484.18 M56.92 462.11 C60.1 467.5, 62.89 473.49, 68.66 484.18" stroke="#1e1e1e" stroke-width="2" fill="none"></path></g><g transform="translate(1482.7651727650086 424.09523809523773) rotate(0 33.43060527957846 242.1428571428571)"><path d="M73.86 459.73 C70.12 467.76, 68.33 476.82, 68.66 484.18 M73.86 459.73 C72.65 465.9, 71.05 472.51, 68.66 484.18" stroke="#1e1e1e" stroke-width="2" fill="none"></path></g></g><mask></mask><g stroke-linecap="round"><g transform="translate(1314.6990422162112 428.38095238095184) rotate(0 -17.007746966425316 215.2619047619047)"><path d="M-1.06 -0.01 C-6.67 71.85, -28.77 359.16, -34.19 430.95 M0.58 -1.07 C-5.16 70.45, -29.44 356.84, -35.23 429.04" stroke="#1e1e1e" stroke-width="2" fill="none"></path></g><g transform="translate(1314.6990422162112 428.38095238095184) rotate(0 -17.007746966425316 215.2619047619047)"><path d="M-41.81 404.93 C-40.19 410.89, -37.77 418.06, -35.23 429.04 M-41.81 404.93 C-40.45 412.22, -36.73 421.02, -35.23 429.04" stroke="#1e1e1e" stroke-width="2" fill="none"></path></g><g transform="translate(1314.6990422162112 428.38095238095184) rotate(0 -17.007746966425316 215.2619047619047)"><path d="M-24.77 406.34 C-27.52 411.78, -29.47 418.59, -35.23 429.04 M-24.77 406.34 C-28.82 413.16, -30.51 421.52, -35.23 429.04" stroke="#1e1e1e" stroke-width="2" fill="none"></path></g></g><mask></mask><g stroke-linecap="round"><g transform="translate(1308.9429834834482 858.9047619047612) rotate(0 18.074520743893004 -217.40476190476176)"><path d="M-0.89 -0.09 C5.03 -72.41, 28.93 -361.45, 35.27 -433.87 M0.84 -1.19 C7.15 -73.83, 31.51 -363.5, 37.51 -435.5" stroke="#1e1e1e" stroke-width="2" fill="none"></path></g><g transform="translate(1308.9429834834482 858.9047619047612) rotate(0 18.074520743893004 -217.40476190476176)"><path d="M44.07 -411.38 C42.07 -419.69, 41.94 -423.37, 37.51 -435.5 M44.07 -411.38 C41.06 -419.79, 39.44 -426.47, 37.51 -435.5" stroke="#1e1e1e" stroke-width="2" fill="none"></path></g><g transform="translate(1308.9429834834482 858.9047619047612) rotate(0 18.074520743893004 -217.40476190476176)"><path d="M27.03 -412.81 C29.82 -420.59, 34.49 -423.87, 37.51 -435.5 M27.03 -412.81 C29.43 -420.6, 33.21 -426.83, 37.51 -435.5" stroke="#1e1e1e" stroke-width="2" fill="none"></path></g></g><mask></mask><g stroke-linecap="round"><g transform="translate(1580.5131544531628 901.7619047619048) rotate(0 -33.93926874580484 -238.11904761904793)"><path d="M0.24 0.4 C-10.97 -78.95, -55.43 -396.29, -66.81 -475.69 M-1.09 -0.44 C-12.4 -80.17, -55.9 -398.5, -67.2 -477.53" stroke="#1e1e1e" stroke-width="2" fill="none"></path></g><g transform="translate(1580.5131544531628 901.7619047619048) rotate(0 -33.93926874580484 -238.11904761904793)"><path d="M-55.49 -455.44 C-58.82 -461.04, -62.5 -470.49, -67.2 -477.53 M-55.49 -455.44 C-59.65 -462.02, -61.97 -469.58, -67.2 -477.53" stroke="#1e1e1e" stroke-width="2" fill="none"></path></g><g transform="translate(1580.5131544531628 901.7619047619048) rotate(0 -33.93926874580484 -238.11904761904793)"><path d="M-72.42 -453.08 C-70.08 -459.51, -68.08 -469.75, -67.2 -477.53 M-72.42 -453.08 C-71.21 -460.25, -68.17 -468.56, -67.2 -477.53" stroke="#1e1e1e" stroke-width="2" fill="none"></path></g></g><mask></mask><g stroke-linecap="round"><g transform="translate(1823.8322056338545 593.4371971219964) rotate(0 -101.02047257024333 -83.95669379909373)"><path d="M0.01 1.17 C-33.76 -26.59, -167.91 -139.31, -201.59 -167.41 M-1.45 0.74 C-35.43 -27.31, -168.74 -140.89, -202.3 -169.27" stroke="#1e1e1e" stroke-width="2" fill="none"></path></g><g transform="translate(1823.8322056338545 593.4371971219964) rotate(0 -101.02047257024333 -83.95669379909373)"><path d="M-178.86 -160.58 C-185.9 -163.18, -196.05 -167.34, -202.3 -169.27 M-178.86 -160.58 C-187.81 -162.75, -194.3 -165.66, -202.3 -169.27" stroke="#1e1e1e" stroke-width="2" fill="none"></path></g><g transform="translate(1823.8322056338545 593.4371971219964) rotate(0 -101.02047257024333 -83.95669379909373)"><path d="M-189.93 -147.55 C-192.6 -155.18, -198.48 -164.36, -202.3 -169.27 M-189.93 -147.55 C-195.09 -154.19, -197.8 -161.54, -202.3 -169.27" stroke="#1e1e1e" stroke-width="2" fill="none"></path></g></g><mask></mask><g stroke-linecap="round" transform="translate(1505.5873015873008 1396.9523809523805) rotate(0 188.8571428571429 92.14285714285711)"><path d="M32 0 C99.66 -2.9, 164.81 0.44, 345.71 0 C369.42 0.99, 379.18 10.95, 377.71 32 C375.09 70.43, 377.9 115.94, 377.71 152.29 C377.24 172.48, 366.85 183.75, 345.71 184.29 C249.71 184.83, 151.1 184.74, 32 184.29 C10.68 183.04, -1.12 172.52, 0 152.29 C3.74 108.22, 4.29 66.26, 0 32 C2.24 11.21, 10.14 3.18, 32 0" stroke="none" stroke-width="0" fill="#e9ecef"></path><path d="M32 0 C125.35 -0.95, 220.9 0.46, 345.71 0 M32 0 C134.29 2.07, 236.32 1.32, 345.71 0 M345.71 0 C365.14 -0.14, 377.42 10.42, 377.71 32 M345.71 0 C366.51 -0.95, 378.87 10.45, 377.71 32 M377.71 32 C377.23 76.6, 375.76 120.44, 377.71 152.29 M377.71 32 C377.36 58.5, 377.46 86.06, 377.71 152.29 M377.71 152.29 C378.64 173.63, 366.56 183.96, 345.71 184.29 M377.71 152.29 C379.05 175.16, 366.25 184.41, 345.71 184.29 M345.71 184.29 C238.14 184.48, 130.44 184.32, 32 184.29 M345.71 184.29 C253.3 186.7, 159.89 186.79, 32 184.29 M32 184.29 C12.22 186.02, 1.41 173.47, 0 152.29 M32 184.29 C10.77 181.99, -0.45 172.61, 0 152.29 M0 152.29 C1.69 108.35, -0.43 65.42, 0 32 M0 152.29 C-1.18 117.35, -0.96 84.03, 0 32 M0 32 C-1.37 10.65, 9.76 -1.66, 32 0 M0 32 C-0.84 9.67, 8.71 1.79, 32 0" stroke="#1e1e1e" stroke-width="2" fill="none"></path></g><g transform="translate(1588.7777803209085 1454.0952380952376) rotate(0 105.66666412353516 35)"><text x="105.66666412353516" y="0" font-family="Virgil, Segoe UI Emoji" font-size="28px" fill="#1e1e1e" text-anchor="middle" style="white-space: pre;" direction="ltr" dominant-baseline="text-before-edge">Object Storage</text><text x="105.66666412353516" y="35" font-family="Virgil, Segoe UI Emoji" font-size="28px" fill="#1e1e1e" text-anchor="middle" style="white-space: pre;" direction="ltr" dominant-baseline="text-before-edge">(Min.io / S3)</text></g><g stroke-linecap="round" transform="translate(957.3015873015866 1403.5238095238087) rotate(0 180.85714285714266 92.14285714285711)"><path d="M32 0 C146.02 1.55, 262.15 0.95, 329.71 0 C351.89 3.14, 361.31 8.09, 361.71 32 C362.36 80.15, 358.69 127.49, 361.71 152.29 C360.17 170.4, 347.74 187.52, 329.71 184.29 C244.29 187.18, 154 184.87, 32 184.29 C11.31 183.02, -2.79 174.08, 0 152.29 C-3.11 119.43, -2.44 84.04, 0 32 C-0.35 7.25, 12.15 -1.92, 32 0" stroke="none" stroke-width="0" fill="#e9ecef"></path><path d="M32 0 C145.42 0.99, 260.71 2.04, 329.71 0 M32 0 C100.88 -0.61, 168.6 -0.55, 329.71 0 M329.71 0 C349.87 1.36, 361.1 11.09, 361.71 32 M329.71 0 C351.02 -1.45, 361.86 11.27, 361.71 32 M361.71 32 C360.2 70.3, 358.87 103.91, 361.71 152.29 M361.71 32 C360.85 65.47, 362.29 98.59, 361.71 152.29 M361.71 152.29 C361.56 172.68, 352.55 186.11, 329.71 184.29 M361.71 152.29 C361.65 171.36, 349.75 182.96, 329.71 184.29 M329.71 184.29 C271.12 186.35, 209.8 184.19, 32 184.29 M329.71 184.29 C218.86 185.45, 109.38 186.5, 32 184.29 M32 184.29 C11.27 185.54, -1.54 174, 0 152.29 M32 184.29 C10.29 182.42, -1.68 175.81, 0 152.29 M0 152.29 C-0.6 125.56, -1.46 97.29, 0 32 M0 152.29 C1.22 103.65, 1.76 55.77, 0 32 M0 32 C0.52 12.47, 12.22 -1.56, 32 0 M0 32 C-1.01 9.28, 8.99 -0.45, 32 0" stroke="#1e1e1e" stroke-width="2" fill="none"></path></g><g transform="translate(1047.650398859901 1460.6666666666658) rotate(0 90.50833129882812 35)"><text x="90.50833129882812" y="0" font-family="Virgil, Segoe UI Emoji" font-size="28px" fill="#1e1e1e" text-anchor="middle" style="white-space: pre;" direction="ltr" dominant-baseline="text-before-edge">Database</text><text x="90.50833129882812" y="35" font-family="Virgil, Segoe UI Emoji" font-size="28px" fill="#1e1e1e" text-anchor="middle" style="white-space: pre;" direction="ltr" dominant-baseline="text-before-edge">(PostgreSQL)</text></g><g stroke-linecap="round" transform="translate(272.61111111111063 10) rotate(0 177.5 117.49999999999996)"><path d="M32 0 C116.34 1.92, 200.12 3.7, 323 0 C345.87 1.82, 355.68 8.77, 355 32 C351.98 69.35, 355.74 107.06, 355 203 C357.65 224.56, 343.7 233.63, 323 235 C256.03 233.01, 191.64 237.57, 32 235 C7.17 232.21, 1.13 225.97, 0 203 C-0.84 160.27, -3.88 116.13, 0 32 C-3.57 12.23, 14.11 -2.62, 32 0" stroke="none" stroke-width="0" fill="#ffffff"></path><path d="M32 0 C103.44 1.57, 172.64 2.62, 323 0 M32 0 C118.18 0.72, 205.36 0.74, 323 0 M323 0 C344.14 -1.36, 353.04 9.38, 355 32 M323 0 C346.47 0.8, 354.39 10.25, 355 32 M355 32 C353.62 76.78, 355.89 118.66, 355 203 M355 32 C355.72 69.92, 355.62 107.07, 355 203 M355 203 C355.99 223.37, 342.73 236.47, 323 235 M355 203 C356.61 226.44, 342.4 234.43, 323 235 M323 235 C247.98 233.86, 173.08 232.82, 32 235 M323 235 C246.3 237.34, 169.75 236.19, 32 235 M32 235 C10.27 233.58, -1.05 222.83, 0 203 M32 235 C10.14 232.95, -1.94 226.51, 0 203 M0 203 C-0.58 140.05, 0.32 75.14, 0 32 M0 203 C0.83 138.6, 0.29 74.87, 0 32 M0 32 C1.39 8.79, 8.74 1.17, 32 0 M0 32 C-0.66 9.03, 12.51 1.96, 32 0" stroke="#1e1e1e" stroke-width="2" fill="none"></path></g><g transform="translate(299.2777828640403 82.49999999999997) rotate(0 150.8333282470703 45)"><text x="150.8333282470703" y="0" font-family="Virgil, Segoe UI Emoji" font-size="36px" fill="#1e1e1e" text-anchor="middle" style="white-space: pre;" direction="ltr" dominant-baseline="text-before-edge">Identity Provider</text><text x="150.8333282470703" y="45" font-family="Virgil, Segoe UI Emoji" font-size="36px" fill="#1e1e1e" text-anchor="middle" style="white-space: pre;" direction="ltr" dominant-baseline="text-before-edge">(Auth0)</text></g><g stroke-linecap="round"><g transform="translate(844.5346066261831 571.6666666666665) rotate(0 -100.96174775753627 -167.9438031886997)"><path d="M-0.41 -1 C-33.9 -56.92, -168.32 -279.88, -201.76 -335.79 M1.58 1.08 C-31.99 -54.59, -168.79 -278.11, -202.62 -334.2" stroke="#1e1e1e" stroke-width="2" fill="none"></path></g><g transform="translate(844.5346066261831 571.6666666666665) rotate(0 -100.96174775753627 -167.9438031886997)"><path d="M-183.11 -318.57 C-189.32 -322.03, -192.07 -324.54, -202.62 -334.2 M-183.11 -318.57 C-189.05 -322.98, -193.36 -326.04, -202.62 -334.2" stroke="#1e1e1e" stroke-width="2" fill="none"></path></g><g transform="translate(844.5346066261831 571.6666666666665) rotate(0 -100.96174775753627 -167.9438031886997)"><path d="M-197.72 -309.69 C-200.48 -315.18, -199.79 -319.77, -202.62 -334.2 M-197.72 -309.69 C-200.05 -316.3, -200.7 -321.59, -202.62 -334.2" stroke="#1e1e1e" stroke-width="2" fill="none"></path></g></g><mask></mask><g stroke-linecap="round"><g transform="translate(607.0745213195934 266.66666666666663) rotate(0 88.40914710389421 149.99999999999994)"><path d="M0.65 0.78 C30.26 50.81, 147.43 249.57, 176.97 299.6 M-0.47 0.14 C29.06 50.39, 146.41 251.1, 176.1 300.93" stroke="#1e1e1e" stroke-width="2" fill="none"></path></g><g transform="translate(607.0745213195934 266.66666666666663) rotate(0 88.40914710389421 149.99999999999994)"><path d="M156.8 285.03 C162.69 289.03, 165.41 294.38, 176.1 300.93 M156.8 285.03 C163.73 292.23, 171.19 297.18, 176.1 300.93" stroke="#1e1e1e" stroke-width="2" fill="none"></path></g><g transform="translate(607.0745213195934 266.66666666666663) rotate(0 88.40914710389421 149.99999999999994)"><path d="M171.53 276.35 C173.81 282.53, 172.96 289.99, 176.1 300.93 M171.53 276.35 C172.91 286.7, 174.79 294.94, 176.1 300.93" stroke="#1e1e1e" stroke-width="2" fill="none"></path></g></g><mask></mask><g stroke-linecap="round"><g transform="translate(122.6111111111106 689.9999999999999) rotate(0 119.16666666666667 -214.99999999999994)"><path d="M-0.72 0.2 C38.95 -71.37, 197.64 -358.72, 237.42 -430.25 M1.11 -0.73 C41.19 -72.06, 200.34 -357.17, 239.65 -428.85" stroke="#1e1e1e" stroke-width="2" fill="none"></path></g><g transform="translate(122.6111111111106 689.9999999999999) rotate(0 119.16666666666667 -214.99999999999994)"><path d="M235.74 -404.16 C237.23 -411.9, 237.46 -417.27, 239.65 -428.85 M235.74 -404.16 C236.42 -413.6, 239.38 -422.57, 239.65 -428.85" stroke="#1e1e1e" stroke-width="2" fill="none"></path></g><g transform="translate(122.6111111111106 689.9999999999999) rotate(0 119.16666666666667 -214.99999999999994)"><path d="M220.78 -412.44 C226 -418.01, 230.01 -421.28, 239.65 -428.85 M220.78 -412.44 C227.27 -418.76, 235.99 -424.54, 239.65 -428.85" stroke="#1e1e1e" stroke-width="2" fill="none"></path></g></g><mask></mask><g stroke-linecap="round"><g transform="translate(404.27777777777715 263.33333333333326) rotate(0 -114.99999999999994 212.49999999999994)"><path d="M0.57 -0.27 C-37.89 70.51, -191.56 354.7, -229.83 425.64 M-0.59 -1.45 C-39.28 68.89, -192.57 353.08, -230.7 423.86" stroke="#1e1e1e" stroke-width="2" fill="none"></path></g><g transform="translate(404.27777777777715 263.33333333333326) rotate(0 -114.99999999999994 212.49999999999994)"><path d="M-227.07 399.12 C-228.69 408.75, -228.54 419.35, -230.7 423.86 M-227.07 399.12 C-228.43 408.02, -228.64 414.82, -230.7 423.86" stroke="#1e1e1e" stroke-width="2" fill="none"></path></g><g transform="translate(404.27777777777715 263.33333333333326) rotate(0 -114.99999999999994 212.49999999999994)"><path d="M-212.02 407.24 C-219.38 413.88, -224.92 421.41, -230.7 423.86 M-212.02 407.24 C-218.39 413.58, -223.57 417.69, -230.7 423.86" stroke="#1e1e1e" stroke-width="2" fill="none"></path></g></g><mask></mask><g stroke-linecap="round"><g transform="translate(910.9447575679366 1322.0831475456725) rotate(0 31.92940229088066 29.958426227163613)"><path d="M0.53 0.53 C11.07 10.62, 52.04 50, 62.77 59.82 M-0.65 -0.24 C10.28 10.11, 54.02 51.18, 64.91 61.31" stroke="#1e1e1e" stroke-width="2" fill="none"></path></g><g transform="translate(910.9447575679366 1322.0831475456725) rotate(0 31.92940229088066 29.958426227163613)"><path d="M41.91 51.5 C48.79 52.16, 53.79 58.26, 64.91 61.31 M41.91 51.5 C48.3 54.75, 54.21 56.98, 64.91 61.31" stroke="#1e1e1e" stroke-width="2" fill="none"></path></g><g transform="translate(910.9447575679366 1322.0831475456725) rotate(0 31.92940229088066 29.958426227163613)"><path d="M53.59 39.01 C57.32 43.01, 59.25 52.4, 64.91 61.31 M53.59 39.01 C56.87 45.56, 59.74 51.06, 64.91 61.31" stroke="#1e1e1e" stroke-width="2" fill="none"></path></g></g><mask></mask><g stroke-linecap="round"><g transform="translate(1258.9129856631453 1133.9999999999998) rotate(0 -91.23021097131107 125)"><path d="M1 0.24 C-29.47 41.91, -152.04 207.51, -182.46 249.05 M0.06 -0.68 C-30.59 41.2, -153.1 208.22, -183.4 250.08" stroke="#1e1e1e" stroke-width="2" fill="none"></path></g><g transform="translate(1258.9129856631453 1133.9999999999998) rotate(0 -91.23021097131107 125)"><path d="M-176.47 226.06 C-178.52 233.95, -182.77 243.4, -183.4 250.08 M-176.47 226.06 C-177.6 232.52, -178.93 239.22, -183.4 250.08" stroke="#1e1e1e" stroke-width="2" fill="none"></path></g><g transform="translate(1258.9129856631453 1133.9999999999998) rotate(0 -91.23021097131107 125)"><path d="M-162.65 236.14 C-169.12 240.86, -177.88 247.03, -183.4 250.08 M-162.65 236.14 C-167.39 240.12, -172.24 244.25, -183.4 250.08" stroke="#1e1e1e" stroke-width="2" fill="none"></path></g></g><mask></mask><g stroke-linecap="round"><g transform="translate(1558.4841674762743 1139.9999999999998) rotate(0 -212.91912327844761 122)"><path d="M-0.83 1.19 C-71.9 41.79, -355.26 203.98, -426.27 244.57 M0.94 0.77 C-70.34 40.93, -356.53 202.41, -427.45 242.75" stroke="#1e1e1e" stroke-width="2" fill="none"></path></g><g transform="translate(1558.4841674762743 1139.9999999999998) rotate(0 -212.91912327844761 122)"><path d="M-411.21 223.74 C-414.15 228.85, -420.25 233.71, -427.45 242.75 M-411.21 223.74 C-417 230.85, -423.97 238.55, -427.45 242.75" stroke="#1e1e1e" stroke-width="2" fill="none"></path></g><g transform="translate(1558.4841674762743 1139.9999999999998) rotate(0 -212.91912327844761 122)"><path d="M-402.79 238.62 C-408.47 239.02, -417.2 239.24, -427.45 242.75 M-402.79 238.62 C-411.59 240.37, -421.61 242.68, -427.45 242.75" stroke="#1e1e1e" stroke-width="2" fill="none"></path></g></g><mask></mask><g stroke-linecap="round"><g transform="translate(1889.6111111111104 841.9999999999999) rotate(0 -320.47265472760307 276.4642857142851)"><path d="M0.15 0.51 C-24.32 52.67, -39.72 221.17, -146.61 313.17 C-253.5 405.17, -558.87 512.44, -641.18 552.51 M-1.23 -0.27 C-25.33 51.58, -37.41 219.35, -144.21 311.67 C-251.02 403.98, -559.44 513.65, -642.07 553.61" stroke="#1e1e1e" stroke-width="2" fill="none"></path></g><g transform="translate(1889.6111111111104 841.9999999999999) rotate(0 -320.47265472760307 276.4642857142851)"><path d="M-623.77 536.57 C-628.78 541.05, -633.53 547.14, -642.07 553.61 M-623.77 536.57 C-628.66 540.31, -632.47 545.58, -642.07 553.61" stroke="#1e1e1e" stroke-width="2" fill="none"></path></g><g transform="translate(1889.6111111111104 841.9999999999999) rotate(0 -320.47265472760307 276.4642857142851)"><path d="M-617.1 552.32 C-624.27 551.75, -631.17 552.79, -642.07 553.61 M-617.1 552.32 C-623.81 551.91, -629.39 553.02, -642.07 553.61" stroke="#1e1e1e" stroke-width="2" fill="none"></path></g></g><mask></mask><g stroke-linecap="round"><g transform="translate(905.6111111111106 1083.1981632321083) rotate(0 318.64654606571924 146.40091838394574)"><path d="M-0.34 0.41 C106.09 49.17, 531.12 244.86, 637.43 293.72 M1.69 -0.42 C108.07 48.52, 530.69 243.4, 636.55 292.08" stroke="#1e1e1e" stroke-width="2" fill="none"></path></g><g transform="translate(905.6111111111106 1083.1981632321083) rotate(0 318.64654606571924 146.40091838394574)"><path d="M611.64 290.02 C617.44 290.73, 623.38 291.26, 636.55 292.08 M611.64 290.02 C620.27 290.16, 629.74 292.28, 636.55 292.08" stroke="#1e1e1e" stroke-width="2" fill="none"></path></g><g transform="translate(905.6111111111106 1083.1981632321083) rotate(0 318.64654606571924 146.40091838394574)"><path d="M618.79 274.48 C623.28 278.36, 627.76 282.07, 636.55 292.08 M618.79 274.48 C624.74 280.23, 631.61 287.99, 636.55 292.08" stroke="#1e1e1e" stroke-width="2" fill="none"></path></g></g><mask></mask><g stroke-linecap="round"><g transform="translate(1375.6111111111104 1135.9999999999998) rotate(0 99.6926066542718 115)"><path d="M0.9 -0.11 C34.05 38.58, 165.58 192.9, 198.71 231.08 M-0.09 -1.21 C33.48 37.25, 167.87 191.03, 201.06 229.52" stroke="#1e1e1e" stroke-width="2" fill="none"></path></g><g transform="translate(1375.6111111111104 1135.9999999999998) rotate(0 99.6926066542718 115)"><path d="M179.2 217.39 C185.03 219.49, 193.11 224.48, 201.06 229.52 M179.2 217.39 C183.29 220.08, 188.58 223.26, 201.06 229.52" stroke="#1e1e1e" stroke-width="2" fill="none"></path></g><g transform="translate(1375.6111111111104 1135.9999999999998) rotate(0 99.6926066542718 115)"><path d="M192.11 206.18 C194.24 211.5, 198.71 219.62, 201.06 229.52 M192.11 206.18 C193.56 211.35, 196.13 216.9, 201.06 229.52" stroke="#1e1e1e" stroke-width="2" fill="none"></path></g></g><mask></mask><g stroke-linecap="round"><g transform="translate(1653.6111111111104 1147.9999999999998) rotate(0 3.987857470486915 115)"><path d="M0.93 0.35 C2.5 38.65, 7.89 192.7, 8.94 230.77 M-0.05 -0.52 C1.5 37.36, 6.86 190.72, 8.5 229.06" stroke="#1e1e1e" stroke-width="2" fill="none"></path></g><g transform="translate(1653.6111111111104 1147.9999999999998) rotate(0 3.987857470486915 115)"><path d="M-0.95 205.91 C2.25 213.42, 5.4 216.56, 8.5 229.06 M-0.95 205.91 C1.56 209.81, 2.05 216.24, 8.5 229.06" stroke="#1e1e1e" stroke-width="2" fill="none"></path></g><g transform="translate(1653.6111111111104 1147.9999999999998) rotate(0 3.987857470486915 115)"><path d="M16.14 205.25 C14.93 213.07, 13.67 216.37, 8.5 229.06 M16.14 205.25 C15.21 209.14, 12.26 215.7, 8.5 229.06" stroke="#1e1e1e" stroke-width="2" fill="none"></path></g></g><mask></mask><g stroke-linecap="round"><g transform="translate(1975.6111111111104 851.9999999999999) rotate(0 -114.82689463411225 263.9999999999999)"><path d="M-0.26 0.15 C-11.07 44.29, -27.19 176.55, -65.28 264.46 C-103.38 352.36, -201.33 483.55, -228.85 527.56 M1.8 -0.82 C-9.07 42.99, -27.36 174.33, -65.86 262.57 C-104.36 350.82, -201.75 484.71, -229.2 528.65" stroke="#1e1e1e" stroke-width="2" fill="none"></path></g><g transform="translate(1975.6111111111104 851.9999999999999) rotate(0 -114.82689463411225 263.9999999999999)"><path d="M-223.28 504.36 C-224.68 511.96, -225.73 518.52, -229.2 528.65 M-223.28 504.36 C-224.06 510.88, -227.33 516.65, -229.2 528.65" stroke="#1e1e1e" stroke-width="2" fill="none"></path></g><g transform="translate(1975.6111111111104 851.9999999999999) rotate(0 -114.82689463411225 263.9999999999999)"><path d="M-209.05 513.84 C-214.18 518.9, -218.99 522.96, -229.2 528.65 M-209.05 513.84 C-213.52 517.92, -220.54 521.2, -229.2 528.65" stroke="#1e1e1e" stroke-width="2" fill="none"></path></g></g><mask></mask><g mask="url(#mask-nKm9bom9jfVAa3lZwX986)" stroke-linecap="round"><g transform="translate(336.6111111111113 881.1666666666666) rotate(0 191.24999999999983 3.75)"><path d="M1.07 1.18 C65 2.54, 319.73 7.16, 383.4 8.38 M0.17 0.76 C64.03 1.76, 319.18 5.73, 382.92 6.71" stroke="#1e1e1e" stroke-width="2" fill="none"></path></g><g transform="translate(336.6111111111113 881.1666666666666) rotate(0 191.24999999999983 3.75)"><path d="M359.3 14.9 C368.01 13.85, 374.25 10.98, 382.92 6.71 M359.3 14.9 C367.91 10.99, 378.25 9.44, 382.92 6.71" stroke="#1e1e1e" stroke-width="2" fill="none"></path></g><g transform="translate(336.6111111111113 881.1666666666666) rotate(0 191.24999999999983 3.75)"><path d="M359.57 -2.2 C368.23 1.64, 374.4 3.66, 382.92 6.71 M359.57 -2.2 C368.23 0.42, 378.47 5.4, 382.92 6.71" stroke="#1e1e1e" stroke-width="2" fill="none"></path></g></g><mask id="mask-nKm9bom9jfVAa3lZwX986"><rect x="0" y="0" fill="#fff" width="819.111111111111" height="988.6666666666666"></rect><rect x="472.8694462246365" y="867.4166666666665" fill="#000" width="109.98332977294922" height="35" opacity="1"></rect></mask><g transform="translate(472.86944622463636 867.4166666666665) rotate(0 55.52563592825089 18.316157580874858)"><text x="54.99166488647461" y="0" font-family="Virgil, Segoe UI Emoji" font-size="28px" fill="#1e1e1e" text-anchor="middle" style="white-space: pre;" direction="ltr" dominant-baseline="text-before-edge">HTTP/S</text></g><g mask="url(#mask-pf6_KmcGfSncMuqEiyBob)" stroke-linecap="round"><g transform="translate(716.611111111111 1011.1666666666666) rotate(0 -188.74999999999983 -5)"><path d="M1.09 -0.46 C-62.05 -2.18, -315.65 -8, -378.64 -9.46 M0.21 -1.75 C-62.6 -3.9, -313.62 -9.73, -376.52 -11.3" stroke="#1e1e1e" stroke-width="2" fill="none"></path></g><g transform="translate(716.611111111111 1011.1666666666666) rotate(0 -188.74999999999983 -5)"><path d="M-352.83 -19.28 C-361.09 -18.42, -366.95 -12.85, -376.52 -11.3 M-352.83 -19.28 C-360.83 -15.66, -370.36 -13.91, -376.52 -11.3" stroke="#1e1e1e" stroke-width="2" fill="none"></path></g><g transform="translate(716.611111111111 1011.1666666666666) rotate(0 -188.74999999999983 -5)"><path d="M-353.24 -2.18 C-361.49 -6.77, -367.23 -6.64, -376.52 -11.3 M-353.24 -2.18 C-361.12 -4.81, -370.49 -9.31, -376.52 -11.3" stroke="#1e1e1e" stroke-width="2" fill="none"></path></g></g><mask id="mask-pf6_KmcGfSncMuqEiyBob"><rect x="0" y="0" fill="#fff" width="1194.1111111111106" height="1121.1666666666665"></rect><rect x="501.41111034817175" y="988.6666666666665" fill="#000" width="52.900001525878906" height="35" opacity="1"></rect></mask><g transform="translate(501.4111103481715 988.6666666666665) rotate(0 26.428125094249907 16.620428779004214)"><text x="26.450000762939453" y="0" font-family="Virgil, Segoe UI Emoji" font-size="28px" fill="#1e1e1e" text-anchor="middle" style="white-space: pre;" direction="ltr" dominant-baseline="text-before-edge">SSE</text></g></svg>